<svg class="icon" viewBox="0 0 1024 1024" version="1.1" xmlns="http://www.w3.org/2000/svg" xmlns:xlink="http://www.w3.org/1999/xlink" width="200" height="200"><path d="M420.430769 148.716308l1.339077 7.08923 7.010462 33.988924 5.592615 28.750769 2.756923 16.384 1.614769 11.027692-2.599384-3.347692c-22.134154-26.112-60.888615-37.415385-96.098462-18.550154l-9.728 5.553231-6.656 4.174769-8.152615 5.356308-8.900923 6.222769c-24.733538 17.683692-47.537231 37.651692-68.253539 59.982769-78.414769 84.440615-111.261538 188.770462-97.398154 310.232615 18.628923 163.643077 124.967385 291.131077 276.164924 333.627077 87.709538 22.882462 182.350769 23.945846 267.027692-13.587692 144.462769-70.104615 232.054154-204.603077 240.836923-369.112615 11.736615-219.884308-150.449231-445.282462-402.904615-504.595693-53.956923-12.642462-115.869538 15.753846-101.651693 86.803693z m57.895385-11.539693c-3.426462-17.329231 14.139077-21.504 30.247384-17.723077 247.059692 58.013538 366.355692 276.755692 357.415385 443.864616-7.719385 144.423385-83.692308 259.032615-205.784615 318.306461-84.992 37.651692-178.884923 23.276308-227.091693 10.712616-125.991385-35.446154-217.284923-141.430154-233.472-283.451077-12.051692-105.629538 16.187077-192.472615 81.99877-263.364923 14.966154-16.147692 30.798769-30.365538 46.788923-42.771693l12.012307-8.979692 7.68-5.356308 6.892308-4.52923 8.507077-5.277539 4.411077-2.481231a18.510769 18.510769 0 0 1 26.781538 20.164924c-8.231385 40.014769-6.656 73.058462 4.371693 99.643076a5.238154 5.238154 0 0 0 1.732923 2.166154c0.590769 0.354462 1.378462 0.354462 2.363077 0 79.478154-39.896615 99.958154-77.587692 96.492307-138.003692l-1.102769-12.839385a380.061538 380.061538 0 0 0-1.654154-13.548307l-2.205538-14.257231-2.717539-15.084308-8.388923-41.432615-3.820307-18.235077-1.417847-7.522462z" fill="#FF3822"></path><path d="M478.365538 137.176615c-3.465846-17.329231 14.099692-21.504 30.208-17.723077 247.059692 58.013538 366.355692 276.755692 357.415385 443.864616-7.719385 144.423385-83.692308 259.032615-205.784615 318.306461-84.992 37.651692-178.884923 23.276308-227.091693 10.712616-125.991385-35.446154-217.284923-141.430154-233.472-283.451077-12.051692-105.629538 16.187077-192.472615 81.99877-263.364923 14.966154-16.147692 30.798769-30.365538 46.788923-42.771693l12.012307-8.979692 7.68-5.356308 6.892308-4.52923 8.507077-5.277539 4.411077-2.481231a18.510769 18.510769 0 0 1 26.781538 20.164924c-8.231385 40.014769-6.656 73.058462 4.371693 99.643076a5.238154 5.238154 0 0 0 1.732923 2.166154c0.590769 0.354462 1.378462 0.354462 2.363077 0 79.478154-39.896615 99.958154-77.587692 96.492307-138.003692l-1.102769-12.839385a380.061538 380.061538 0 0 0-1.654154-13.548307l-2.205538-14.257231-2.717539-15.084308-8.388923-41.432615-3.820307-18.235077-1.417847-7.522462z" fill="#FF6329"></path><path d="M480.137846 146.195692a315.076923 315.076923 0 0 1-252.061538 568.477539 358.636308 358.636308 0 0 1-28.435693-105.787077c-12.051692-105.629538 16.187077-192.472615 81.99877-263.364923 14.966154-16.147692 30.798769-30.365538 46.788923-42.771693l12.012307-8.979692 7.68-5.356308 6.892308-4.52923 8.507077-5.277539 4.411077-2.481231a18.510769 18.510769 0 0 1 26.781538 20.164924c-8.231385 40.014769-6.656 73.058462 4.371693 99.643076a5.238154 5.238154 0 0 0 1.732923 2.166154c0.590769 0.354462 1.378462 0.354462 2.363077 0 79.478154-39.896615 99.958154-77.587692 96.492307-138.003692l-1.102769-12.839385a380.061538 380.061538 0 0 0-1.654154-13.548307l-2.205538-14.257231-2.717539-15.084308-8.388923-41.432615z" fill="#FF8043"></path><path d="M565.051077 444.140308c-2.520615 32.334769-25.127385 50.884923-51.515077 69.001846l-20.243692 13.705846c-31.783385 21.858462-63.212308 47.655385-68.450462 98.579692-10.870154 105.472 100.627692 128.669538 137.334154 121.659077 53.090462-11.933538 85.070769-47.970462 98.304-99.643077 15.36-59.785846-12.327385-129.890462-82.116923-210.195692-4.529231-5.238154-13.548308-2.481231-13.390769 4.056615l0.078769 2.835693z" fill="#FFFFFF"></path></svg>