<svg class="icon" viewBox="0 0 1024 1024" version="1.1" xmlns="http://www.w3.org/2000/svg" xmlns:xlink="http://www.w3.org/1999/xlink" width="200" height="200"><path d="M719.517538 59.076923c61.400615 0 113.506462 39.778462 131.938462 94.995692a174.828308 174.828308 0 0 1 117.878154 208.659693l-2.835692 10.16123-31.82277 102.360616a214.134154 214.134154 0 0 1-118.075077 132.371692 346.939077 346.939077 0 0 1-258.638769 178.018462l-0.039384 63.684923h112.915692a47.931077 47.931077 0 1 1 0 95.901538H353.161846a47.931077 47.931077 0 0 1 0-95.901538h112.876308v-63.645539a346.860308 346.860308 0 0 1-260.332308-181.16923 213.858462 213.858462 0 0 1-111.379692-129.260308l-31.822769-102.360616a174.788923 174.788923 0 0 1 109.48923-217.00923 139.027692 139.027692 0 0 1 124.809847-96.610462L304.443077 59.076923H719.556923z m0 59.076923H304.443077c-24.379077 0-46.198154 10.909538-60.849231 28.081231h56.004923a78.769231 78.769231 0 0 1 78.769231 78.769231v322.638769a78.769231 78.769231 0 0 1-80.974769 78.769231l-6.301539-0.236308A286.916923 286.916923 0 0 0 512 729.6a286.916923 286.916923 0 0 0 220.711385-103.227077h-1.142154a78.769231 78.769231 0 0 1-80.738462-72.979692l-0.236307-5.750154V225.004308a78.769231 78.769231 0 0 1 72.861538-78.532923l5.907692-0.236308h51.003077a79.832615 79.832615 0 0 0-53.641846-27.766154L719.556923 118.153846z m79.95077 106.850462h-70.104616v322.638769l7.719385-0.196923a135.876923 135.876923 0 0 0 46.631385-11.106462 286.601846 286.601846 0 0 0 15.438769-80.187077l0.354461-14.060307V225.004308z m-499.79077 0H229.336615l-4.883692 0.157538v216.930462c0 31.980308 5.238154 62.739692 14.848 91.490461 16.147692 7.955692 33.949538 12.8 52.578462 13.863385l7.719384 0.196923V225.004308z m558.946462 20.283077l-0.039385 196.804923-0.236307 13.115077 1.102769-3.347693 31.822769-102.360615a95.980308 95.980308 0 0 0-32.649846-104.211692zM133.395692 320.984615c0 9.649231 1.457231 19.259077 4.332308 28.475077l27.687385 89.16677V249.422769a95.744 95.744 0 0 0-32.019693 71.601231z" fill="#FC9802"></path><path d="M304.482462 118.153846H719.556923c44.189538 0 79.990154 35.84 79.990154 79.990154v243.948308a287.507692 287.507692 0 1 1-575.015385 0V198.144C224.492308 153.993846 260.332308 118.153846 304.482462 118.153846z" fill="#FFAB1F"></path><path d="M696.595692 118.153846A334.769231 334.769231 0 0 1 243.790769 545.752615a286.759385 286.759385 0 0 1-19.259077-103.660307V198.144C224.492308 153.993846 260.332308 118.153846 304.482462 118.153846h392.11323z" fill="#FFBB4A"></path><path d="M512 502.429538l-52.302769 28.672a28.790154 28.790154 0 0 1-42.259693-29.932307l10.279385-62.621539-44.740923-45.528615a28.790154 28.790154 0 0 1 16.226462-48.679385l60.691692-9.216 26.072615-55.059692a28.790154 28.790154 0 0 1 52.066462 0l26.072615 55.059692 60.691692 9.216a28.790154 28.790154 0 0 1 16.226462 48.679385l-44.740923 45.489231 10.279385 62.660923a28.790154 28.790154 0 0 1-42.259693 29.932307L512 502.429538z" fill="#FFFFFF"></path></svg>